<svg version="1.1" id="Layer_1" xmlns="http://www.w3.org/2000/svg" xmlns:xlink="http://www.w3.org/1999/xlink" x="0px" y="0px"
	 width="100%" viewBox="0 0 1024 1024" enable-background="new 0 0 1024 1024" xml:space="preserve">
<rect width="1024" height="1024" fill="#FFFFFF"/>
<path fill="#000000" opacity="1.000000" stroke="none" 
	d="
M375.710693,582.211304 
	C362.320343,558.638611 351.809509,534.216064 343.514496,508.802551 
	C340.639984,499.995850 342.495056,493.654968 350.608521,488.894928 
	C363.537933,481.309479 376.653687,474.041809 389.686005,466.631653 
	C398.517792,461.609955 407.324493,456.543823 416.180084,451.564545 
	C418.639709,450.181519 421.129974,448.724213 423.786163,447.844452 
	C430.791992,445.524017 437.007904,448.752228 439.009094,455.845520 
	C447.642212,486.445923 459.781738,515.607239 475.355591,543.283142 
	C490.763611,570.664307 508.621246,596.331909 530.616455,618.937317 
	C531.777832,620.130859 532.980103,621.287720 534.207153,622.413879 
	C548.203979,635.260864 558.580933,636.034180 573.944946,625.064331 
	C587.122620,615.655518 600.883606,607.250427 615.265015,599.815186 
	C636.282654,588.949219 659.335266,595.531006 671.571716,615.776367 
	C687.425293,642.006226 703.805176,667.924072 719.312622,694.355164 
	C729.954041,712.492493 725.879517,738.524475 706.670349,750.476990 
	C693.942871,758.396301 681.553223,766.866394 668.724243,774.612610 
	C654.015686,783.493713 637.632751,784.911560 620.928528,783.796082 
	C582.048157,781.199646 548.600281,764.467102 516.959412,743.309387 
	C474.691986,715.045898 438.869659,680.109253 409.125519,638.853882 
	C396.307800,621.075623 386.112152,601.809998 375.710693,582.211304 
z"/>
<path fill="#FF0000" opacity="1.000000" stroke="none" 
	d="
M491.363831,388.322418 
	C482.870087,397.243439 471.833801,401.550903 461.702148,407.208374 
	C424.482788,427.991669 387.136597,448.547607 349.867340,469.241669 
	C340.529541,474.426575 336.951538,473.285889 333.585632,463.111481 
	C324.657288,436.123260 319.457001,408.438477 317.625549,380.034393 
	C316.181213,357.634583 316.817169,335.427948 321.832245,313.531403 
	C325.645996,296.880005 333.125336,281.893219 344.498688,269.010956 
	C349.638885,263.188782 355.794067,258.819855 363.036407,255.795502 
	C377.786041,249.636093 392.351196,243.034805 407.100800,236.875244 
	C424.062988,229.791672 437.725983,232.639465 448.809326,245.138931 
	C451.395508,248.055481 453.112152,251.456635 454.664856,254.970123 
	C467.388916,283.762299 481.818817,311.736053 495.635101,340.000885 
	C503.961884,357.035492 503.695374,372.936157 491.363831,388.322418 
z"/>
</svg>
